<mxfile host="Electron" agent="Mozilla/5.0 (Macintosh; Intel Mac OS X 10_15_7) AppleWebKit/537.36 (KHTML, like Gecko) draw.io/24.7.17 Chrome/128.0.6613.36 Electron/32.0.1 Safari/537.36" version="24.7.17">
  <diagram name="Page-1" id="gNpJx5rv7onuiS_OyHsm">
    <mxGraphModel dx="1831" dy="1946" grid="1" gridSize="10" guides="1" tooltips="1" connect="1" arrows="1" fold="1" page="1" pageScale="1" pageWidth="850" pageHeight="1100" math="0" shadow="0">
      <root>
        <mxCell id="0" />
        <mxCell id="1" parent="0" />
        <mxCell id="YXK7Z4Z5lZBy9XtIN4qR-1" style="edgeStyle=orthogonalEdgeStyle;shape=connector;rounded=0;orthogonalLoop=1;jettySize=auto;html=1;strokeColor=default;align=center;verticalAlign=middle;fontFamily=Helvetica;fontSize=11;fontColor=default;labelBackgroundColor=default;startArrow=none;startFill=0;startSize=20;endArrow=openThin;endFill=0;endSize=20;" parent="1" source="epCVmQHk5e1hiLAlQ9qd-1" target="epCVmQHk5e1hiLAlQ9qd-26" edge="1">
          <mxGeometry relative="1" as="geometry">
            <Array as="points">
              <mxPoint x="80" y="362" />
              <mxPoint x="80" y="362" />
            </Array>
          </mxGeometry>
        </mxCell>
        <mxCell id="B9tVBVnGrth3jbB6rGIX-11" style="edgeStyle=orthogonalEdgeStyle;shape=connector;rounded=0;orthogonalLoop=1;jettySize=auto;html=1;strokeColor=default;align=center;verticalAlign=middle;fontFamily=Helvetica;fontSize=11;fontColor=default;labelBackgroundColor=default;startArrow=none;startFill=0;startSize=20;endArrow=openThin;endFill=0;endSize=20;" parent="1" source="epCVmQHk5e1hiLAlQ9qd-1" target="B9tVBVnGrth3jbB6rGIX-1" edge="1">
          <mxGeometry relative="1" as="geometry">
            <Array as="points">
              <mxPoint x="300" y="430" />
              <mxPoint x="300" y="430" />
            </Array>
          </mxGeometry>
        </mxCell>
        <mxCell id="z4-LLyhYstn7hPUnOFZi-1" style="edgeStyle=orthogonalEdgeStyle;shape=connector;curved=0;rounded=0;orthogonalLoop=1;jettySize=auto;html=1;shadow=0;strokeColor=default;align=center;verticalAlign=middle;fontFamily=Helvetica;fontSize=11;fontColor=default;labelBackgroundColor=default;endArrow=openThin;endFill=0;flowAnimation=0;endSize=20;" parent="1" source="epCVmQHk5e1hiLAlQ9qd-1" target="mX7v8Orim6EYVugqGwq7-1" edge="1">
          <mxGeometry relative="1" as="geometry">
            <Array as="points">
              <mxPoint x="380" y="352" />
              <mxPoint x="380" y="352" />
            </Array>
          </mxGeometry>
        </mxCell>
        <mxCell id="z4-LLyhYstn7hPUnOFZi-2" style="edgeStyle=orthogonalEdgeStyle;shape=connector;curved=0;rounded=0;orthogonalLoop=1;jettySize=auto;html=1;shadow=0;strokeColor=default;align=center;verticalAlign=middle;fontFamily=Helvetica;fontSize=11;fontColor=default;labelBackgroundColor=default;endArrow=openThin;endFill=0;flowAnimation=0;endSize=20;" parent="1" source="epCVmQHk5e1hiLAlQ9qd-1" target="epCVmQHk5e1hiLAlQ9qd-30" edge="1">
          <mxGeometry relative="1" as="geometry">
            <Array as="points">
              <mxPoint x="140" y="380" />
            </Array>
          </mxGeometry>
        </mxCell>
        <mxCell id="z4-LLyhYstn7hPUnOFZi-9" style="edgeStyle=orthogonalEdgeStyle;shape=connector;curved=0;rounded=0;orthogonalLoop=1;jettySize=auto;html=1;shadow=0;strokeColor=default;align=center;verticalAlign=middle;fontFamily=Helvetica;fontSize=11;fontColor=default;labelBackgroundColor=default;endArrow=openThin;endFill=0;endSize=20;flowAnimation=0;" parent="1" source="epCVmQHk5e1hiLAlQ9qd-1" target="z4-LLyhYstn7hPUnOFZi-4" edge="1">
          <mxGeometry relative="1" as="geometry">
            <Array as="points">
              <mxPoint x="70" y="340" />
              <mxPoint x="70" y="280" />
              <mxPoint x="-115" y="280" />
            </Array>
          </mxGeometry>
        </mxCell>
        <mxCell id="epCVmQHk5e1hiLAlQ9qd-1" value="MainDriver" style="swimlane;fontStyle=1;align=center;verticalAlign=top;childLayout=stackLayout;horizontal=1;startSize=26;horizontalStack=0;resizeParent=1;resizeParentMax=0;resizeLast=0;collapsible=1;marginBottom=0;whiteSpace=wrap;html=1;fillColor=#b0e3e6;strokeColor=#0e8088;" parent="1" vertex="1">
          <mxGeometry x="170" y="320" width="160" height="84" as="geometry" />
        </mxCell>
        <mxCell id="epCVmQHk5e1hiLAlQ9qd-2" value="&amp;nbsp;" style="text;strokeColor=none;fillColor=none;align=left;verticalAlign=top;spacingLeft=4;spacingRight=4;overflow=hidden;rotatable=0;points=[[0,0.5],[1,0.5]];portConstraint=eastwest;whiteSpace=wrap;html=1;" parent="epCVmQHk5e1hiLAlQ9qd-1" vertex="1">
          <mxGeometry y="26" width="160" height="24" as="geometry" />
        </mxCell>
        <mxCell id="epCVmQHk5e1hiLAlQ9qd-3" value="" style="line;strokeWidth=1;fillColor=none;align=left;verticalAlign=middle;spacingTop=-1;spacingLeft=3;spacingRight=3;rotatable=0;labelPosition=right;points=[];portConstraint=eastwest;strokeColor=inherit;" parent="epCVmQHk5e1hiLAlQ9qd-1" vertex="1">
          <mxGeometry y="50" width="160" height="8" as="geometry" />
        </mxCell>
        <mxCell id="epCVmQHk5e1hiLAlQ9qd-4" value="+ &lt;u&gt;main()&lt;/u&gt;: void" style="text;strokeColor=none;fillColor=none;align=left;verticalAlign=top;spacingLeft=4;spacingRight=4;overflow=hidden;rotatable=0;points=[[0,0.5],[1,0.5]];portConstraint=eastwest;whiteSpace=wrap;html=1;" parent="epCVmQHk5e1hiLAlQ9qd-1" vertex="1">
          <mxGeometry y="58" width="160" height="26" as="geometry" />
        </mxCell>
        <mxCell id="epCVmQHk5e1hiLAlQ9qd-24" style="edgeStyle=orthogonalEdgeStyle;shape=connector;rounded=0;orthogonalLoop=1;jettySize=auto;html=1;strokeColor=default;align=center;verticalAlign=middle;fontFamily=Helvetica;fontSize=11;fontColor=default;labelBackgroundColor=default;endArrow=none;endFill=0;endSize=20;startArrow=openThin;startFill=0;startSize=20;" parent="1" source="epCVmQHk5e1hiLAlQ9qd-5" target="epCVmQHk5e1hiLAlQ9qd-1" edge="1">
          <mxGeometry relative="1" as="geometry" />
        </mxCell>
        <mxCell id="epCVmQHk5e1hiLAlQ9qd-5" value="&lt;i&gt;Input&lt;/i&gt;" style="swimlane;fontStyle=1;align=center;verticalAlign=top;childLayout=stackLayout;horizontal=1;startSize=26;horizontalStack=0;resizeParent=1;resizeParentMax=0;resizeLast=0;collapsible=1;marginBottom=0;whiteSpace=wrap;html=1;" parent="1" vertex="1">
          <mxGeometry x="60" y="150" width="160" height="100" as="geometry" />
        </mxCell>
        <mxCell id="epCVmQHk5e1hiLAlQ9qd-6" value="&amp;nbsp;" style="text;strokeColor=none;fillColor=none;align=left;verticalAlign=top;spacingLeft=4;spacingRight=4;overflow=hidden;rotatable=0;points=[[0,0.5],[1,0.5]];portConstraint=eastwest;whiteSpace=wrap;html=1;" parent="epCVmQHk5e1hiLAlQ9qd-5" vertex="1">
          <mxGeometry y="26" width="160" height="24" as="geometry" />
        </mxCell>
        <mxCell id="epCVmQHk5e1hiLAlQ9qd-7" value="" style="line;strokeWidth=1;fillColor=none;align=left;verticalAlign=middle;spacingTop=-1;spacingLeft=3;spacingRight=3;rotatable=0;labelPosition=right;points=[];portConstraint=eastwest;strokeColor=inherit;" parent="epCVmQHk5e1hiLAlQ9qd-5" vertex="1">
          <mxGeometry y="50" width="160" height="8" as="geometry" />
        </mxCell>
        <mxCell id="epCVmQHk5e1hiLAlQ9qd-8" value="+ Input(): Input&lt;div&gt;&lt;i&gt;+ getInput(): void&lt;/i&gt;&lt;/div&gt;" style="text;strokeColor=none;fillColor=none;align=left;verticalAlign=top;spacingLeft=4;spacingRight=4;overflow=hidden;rotatable=0;points=[[0,0.5],[1,0.5]];portConstraint=eastwest;whiteSpace=wrap;html=1;" parent="epCVmQHk5e1hiLAlQ9qd-5" vertex="1">
          <mxGeometry y="58" width="160" height="42" as="geometry" />
        </mxCell>
        <mxCell id="epCVmQHk5e1hiLAlQ9qd-25" style="edgeStyle=orthogonalEdgeStyle;shape=connector;rounded=0;orthogonalLoop=1;jettySize=auto;html=1;strokeColor=default;align=center;verticalAlign=middle;fontFamily=Helvetica;fontSize=11;fontColor=default;labelBackgroundColor=default;endArrow=none;endFill=0;endSize=20;startArrow=openThin;startFill=0;startSize=20;" parent="1" source="epCVmQHk5e1hiLAlQ9qd-9" target="epCVmQHk5e1hiLAlQ9qd-1" edge="1">
          <mxGeometry relative="1" as="geometry" />
        </mxCell>
        <mxCell id="epCVmQHk5e1hiLAlQ9qd-9" value="&lt;i&gt;Output&lt;/i&gt;" style="swimlane;fontStyle=1;align=center;verticalAlign=top;childLayout=stackLayout;horizontal=1;startSize=26;horizontalStack=0;resizeParent=1;resizeParentMax=0;resizeLast=0;collapsible=1;marginBottom=0;whiteSpace=wrap;html=1;" parent="1" vertex="1">
          <mxGeometry x="280" y="150" width="160" height="100" as="geometry" />
        </mxCell>
        <mxCell id="epCVmQHk5e1hiLAlQ9qd-10" value="&amp;nbsp;" style="text;strokeColor=none;fillColor=none;align=left;verticalAlign=top;spacingLeft=4;spacingRight=4;overflow=hidden;rotatable=0;points=[[0,0.5],[1,0.5]];portConstraint=eastwest;whiteSpace=wrap;html=1;" parent="epCVmQHk5e1hiLAlQ9qd-9" vertex="1">
          <mxGeometry y="26" width="160" height="24" as="geometry" />
        </mxCell>
        <mxCell id="epCVmQHk5e1hiLAlQ9qd-11" value="" style="line;strokeWidth=1;fillColor=none;align=left;verticalAlign=middle;spacingTop=-1;spacingLeft=3;spacingRight=3;rotatable=0;labelPosition=right;points=[];portConstraint=eastwest;strokeColor=inherit;" parent="epCVmQHk5e1hiLAlQ9qd-9" vertex="1">
          <mxGeometry y="50" width="160" height="8" as="geometry" />
        </mxCell>
        <mxCell id="epCVmQHk5e1hiLAlQ9qd-12" value="+ Output(): Output&lt;div&gt;&lt;i&gt;+ produceOutput(): void&lt;br&gt;&lt;/i&gt;&lt;div&gt;&lt;br&gt;&lt;/div&gt;&lt;/div&gt;" style="text;strokeColor=none;fillColor=none;align=left;verticalAlign=top;spacingLeft=4;spacingRight=4;overflow=hidden;rotatable=0;points=[[0,0.5],[1,0.5]];portConstraint=eastwest;whiteSpace=wrap;html=1;" parent="epCVmQHk5e1hiLAlQ9qd-9" vertex="1">
          <mxGeometry y="58" width="160" height="42" as="geometry" />
        </mxCell>
        <mxCell id="epCVmQHk5e1hiLAlQ9qd-21" style="edgeStyle=orthogonalEdgeStyle;rounded=0;orthogonalLoop=1;jettySize=auto;html=1;endArrow=blockThin;endFill=0;endSize=20;" parent="1" source="epCVmQHk5e1hiLAlQ9qd-13" target="epCVmQHk5e1hiLAlQ9qd-5" edge="1">
          <mxGeometry relative="1" as="geometry" />
        </mxCell>
        <mxCell id="epCVmQHk5e1hiLAlQ9qd-13" value="ConsoleInput" style="swimlane;fontStyle=1;align=center;verticalAlign=top;childLayout=stackLayout;horizontal=1;startSize=26;horizontalStack=0;resizeParent=1;resizeParentMax=0;resizeLast=0;collapsible=1;marginBottom=0;whiteSpace=wrap;html=1;" parent="1" vertex="1">
          <mxGeometry x="50" y="-10" width="180" height="100" as="geometry" />
        </mxCell>
        <mxCell id="epCVmQHk5e1hiLAlQ9qd-14" value="&amp;nbsp;" style="text;strokeColor=none;fillColor=none;align=left;verticalAlign=top;spacingLeft=4;spacingRight=4;overflow=hidden;rotatable=0;points=[[0,0.5],[1,0.5]];portConstraint=eastwest;whiteSpace=wrap;html=1;" parent="epCVmQHk5e1hiLAlQ9qd-13" vertex="1">
          <mxGeometry y="26" width="180" height="24" as="geometry" />
        </mxCell>
        <mxCell id="epCVmQHk5e1hiLAlQ9qd-15" value="" style="line;strokeWidth=1;fillColor=none;align=left;verticalAlign=middle;spacingTop=-1;spacingLeft=3;spacingRight=3;rotatable=0;labelPosition=right;points=[];portConstraint=eastwest;strokeColor=inherit;" parent="epCVmQHk5e1hiLAlQ9qd-13" vertex="1">
          <mxGeometry y="50" width="180" height="8" as="geometry" />
        </mxCell>
        <mxCell id="epCVmQHk5e1hiLAlQ9qd-16" value="+ ConsoleInput(): ConsoleInput&lt;div&gt;+ getInput(): void&lt;/div&gt;" style="text;strokeColor=none;fillColor=none;align=left;verticalAlign=top;spacingLeft=4;spacingRight=4;overflow=hidden;rotatable=0;points=[[0,0.5],[1,0.5]];portConstraint=eastwest;whiteSpace=wrap;html=1;" parent="epCVmQHk5e1hiLAlQ9qd-13" vertex="1">
          <mxGeometry y="58" width="180" height="42" as="geometry" />
        </mxCell>
        <mxCell id="epCVmQHk5e1hiLAlQ9qd-23" style="edgeStyle=orthogonalEdgeStyle;shape=connector;rounded=0;orthogonalLoop=1;jettySize=auto;html=1;strokeColor=default;align=center;verticalAlign=middle;fontFamily=Helvetica;fontSize=11;fontColor=default;labelBackgroundColor=default;endArrow=blockThin;endFill=0;endSize=20;" parent="1" source="epCVmQHk5e1hiLAlQ9qd-17" target="epCVmQHk5e1hiLAlQ9qd-9" edge="1">
          <mxGeometry relative="1" as="geometry" />
        </mxCell>
        <mxCell id="epCVmQHk5e1hiLAlQ9qd-17" value="ConsoleOutput" style="swimlane;fontStyle=1;align=center;verticalAlign=top;childLayout=stackLayout;horizontal=1;startSize=26;horizontalStack=0;resizeParent=1;resizeParentMax=0;resizeLast=0;collapsible=1;marginBottom=0;whiteSpace=wrap;html=1;" parent="1" vertex="1">
          <mxGeometry x="260" y="-10" width="200" height="100" as="geometry" />
        </mxCell>
        <mxCell id="epCVmQHk5e1hiLAlQ9qd-18" value="&amp;nbsp;" style="text;strokeColor=none;fillColor=none;align=left;verticalAlign=top;spacingLeft=4;spacingRight=4;overflow=hidden;rotatable=0;points=[[0,0.5],[1,0.5]];portConstraint=eastwest;whiteSpace=wrap;html=1;" parent="epCVmQHk5e1hiLAlQ9qd-17" vertex="1">
          <mxGeometry y="26" width="200" height="24" as="geometry" />
        </mxCell>
        <mxCell id="epCVmQHk5e1hiLAlQ9qd-19" value="" style="line;strokeWidth=1;fillColor=none;align=left;verticalAlign=middle;spacingTop=-1;spacingLeft=3;spacingRight=3;rotatable=0;labelPosition=right;points=[];portConstraint=eastwest;strokeColor=inherit;" parent="epCVmQHk5e1hiLAlQ9qd-17" vertex="1">
          <mxGeometry y="50" width="200" height="8" as="geometry" />
        </mxCell>
        <mxCell id="epCVmQHk5e1hiLAlQ9qd-20" value="+ ConsoleOutput(): ConsoleOutput&lt;div&gt;+ produceOutput(): void&lt;br&gt;&lt;div&gt;&lt;br&gt;&lt;/div&gt;&lt;/div&gt;" style="text;strokeColor=none;fillColor=none;align=left;verticalAlign=top;spacingLeft=4;spacingRight=4;overflow=hidden;rotatable=0;points=[[0,0.5],[1,0.5]];portConstraint=eastwest;whiteSpace=wrap;html=1;" parent="epCVmQHk5e1hiLAlQ9qd-17" vertex="1">
          <mxGeometry y="58" width="200" height="42" as="geometry" />
        </mxCell>
        <mxCell id="epCVmQHk5e1hiLAlQ9qd-26" value="&lt;i&gt;FileManager&lt;/i&gt;" style="swimlane;fontStyle=1;align=center;verticalAlign=top;childLayout=stackLayout;horizontal=1;startSize=26;horizontalStack=0;resizeParent=1;resizeParentMax=0;resizeLast=0;collapsible=1;marginBottom=0;whiteSpace=wrap;html=1;" parent="1" vertex="1">
          <mxGeometry x="-220" y="307" width="210" height="110" as="geometry" />
        </mxCell>
        <mxCell id="epCVmQHk5e1hiLAlQ9qd-27" value="&amp;nbsp;" style="text;strokeColor=none;fillColor=none;align=left;verticalAlign=top;spacingLeft=4;spacingRight=4;overflow=hidden;rotatable=0;points=[[0,0.5],[1,0.5]];portConstraint=eastwest;whiteSpace=wrap;html=1;" parent="epCVmQHk5e1hiLAlQ9qd-26" vertex="1">
          <mxGeometry y="26" width="210" height="24" as="geometry" />
        </mxCell>
        <mxCell id="epCVmQHk5e1hiLAlQ9qd-28" value="" style="line;strokeWidth=1;fillColor=none;align=left;verticalAlign=middle;spacingTop=-1;spacingLeft=3;spacingRight=3;rotatable=0;labelPosition=right;points=[];portConstraint=eastwest;strokeColor=inherit;" parent="epCVmQHk5e1hiLAlQ9qd-26" vertex="1">
          <mxGeometry y="50" width="210" height="8" as="geometry" />
        </mxCell>
        <mxCell id="epCVmQHk5e1hiLAlQ9qd-29" value="+ FileOpener(): FileOpener&lt;div&gt;&lt;i&gt;# openFile(path: String): boolean&lt;/i&gt;&lt;/div&gt;&lt;div&gt;&lt;i&gt;+ convertFileToStringArray(): String[]&lt;/i&gt;&lt;/div&gt;" style="text;strokeColor=none;fillColor=none;align=left;verticalAlign=top;spacingLeft=4;spacingRight=4;overflow=hidden;rotatable=0;points=[[0,0.5],[1,0.5]];portConstraint=eastwest;whiteSpace=wrap;html=1;" parent="epCVmQHk5e1hiLAlQ9qd-26" vertex="1">
          <mxGeometry y="58" width="210" height="52" as="geometry" />
        </mxCell>
        <mxCell id="z4-LLyhYstn7hPUnOFZi-18" style="edgeStyle=orthogonalEdgeStyle;shape=connector;curved=0;rounded=0;orthogonalLoop=1;jettySize=auto;html=1;shadow=0;strokeColor=default;align=center;verticalAlign=middle;fontFamily=Helvetica;fontSize=11;fontColor=default;labelBackgroundColor=default;endArrow=openThin;endFill=0;endSize=20;flowAnimation=0;" parent="1" source="epCVmQHk5e1hiLAlQ9qd-30" target="z4-LLyhYstn7hPUnOFZi-10" edge="1">
          <mxGeometry relative="1" as="geometry">
            <Array as="points">
              <mxPoint x="30" y="760" />
              <mxPoint x="810" y="760" />
            </Array>
          </mxGeometry>
        </mxCell>
        <mxCell id="epCVmQHk5e1hiLAlQ9qd-30" value="CircularShifter" style="swimlane;fontStyle=1;align=center;verticalAlign=top;childLayout=stackLayout;horizontal=1;startSize=26;horizontalStack=0;resizeParent=1;resizeParentMax=0;resizeLast=0;collapsible=1;marginBottom=0;whiteSpace=wrap;html=1;" parent="1" vertex="1">
          <mxGeometry x="-125" y="620" width="310" height="110" as="geometry" />
        </mxCell>
        <mxCell id="epCVmQHk5e1hiLAlQ9qd-31" value="&amp;nbsp;" style="text;strokeColor=none;fillColor=none;align=left;verticalAlign=top;spacingLeft=4;spacingRight=4;overflow=hidden;rotatable=0;points=[[0,0.5],[1,0.5]];portConstraint=eastwest;whiteSpace=wrap;html=1;" parent="epCVmQHk5e1hiLAlQ9qd-30" vertex="1">
          <mxGeometry y="26" width="310" height="24" as="geometry" />
        </mxCell>
        <mxCell id="epCVmQHk5e1hiLAlQ9qd-32" value="" style="line;strokeWidth=1;fillColor=none;align=left;verticalAlign=middle;spacingTop=-1;spacingLeft=3;spacingRight=3;rotatable=0;labelPosition=right;points=[];portConstraint=eastwest;strokeColor=inherit;" parent="epCVmQHk5e1hiLAlQ9qd-30" vertex="1">
          <mxGeometry y="50" width="310" height="8" as="geometry" />
        </mxCell>
        <mxCell id="epCVmQHk5e1hiLAlQ9qd-33" value="+ CircularShifter(): CircularShifter&lt;div&gt;+ &lt;u style=&quot;&quot;&gt;circularShift&lt;/u&gt;(array: String[]): ArrayList&amp;lt;Pair&amp;gt;&amp;nbsp;&lt;/div&gt;" style="text;strokeColor=none;fillColor=none;align=left;verticalAlign=top;spacingLeft=4;spacingRight=4;overflow=hidden;rotatable=0;points=[[0,0.5],[1,0.5]];portConstraint=eastwest;whiteSpace=wrap;html=1;" parent="epCVmQHk5e1hiLAlQ9qd-30" vertex="1">
          <mxGeometry y="58" width="310" height="52" as="geometry" />
        </mxCell>
        <mxCell id="z4-LLyhYstn7hPUnOFZi-28" style="edgeStyle=orthogonalEdgeStyle;shape=connector;curved=0;rounded=0;orthogonalLoop=1;jettySize=auto;html=1;shadow=0;strokeColor=default;align=center;verticalAlign=middle;fontFamily=Helvetica;fontSize=11;fontColor=default;labelBackgroundColor=default;endArrow=blockThin;endFill=0;endSize=20;flowAnimation=0;" parent="1" source="YXK7Z4Z5lZBy9XtIN4qR-3" target="epCVmQHk5e1hiLAlQ9qd-26" edge="1">
          <mxGeometry relative="1" as="geometry" />
        </mxCell>
        <mxCell id="YXK7Z4Z5lZBy9XtIN4qR-3" value="TextFileManager" style="swimlane;fontStyle=1;align=center;verticalAlign=top;childLayout=stackLayout;horizontal=1;startSize=26;horizontalStack=0;resizeParent=1;resizeParentMax=0;resizeLast=0;collapsible=1;marginBottom=0;whiteSpace=wrap;html=1;" parent="1" vertex="1">
          <mxGeometry x="-220" y="461" width="210" height="110" as="geometry" />
        </mxCell>
        <mxCell id="YXK7Z4Z5lZBy9XtIN4qR-4" value="- bufferedReader: BufferedReader" style="text;strokeColor=none;fillColor=none;align=left;verticalAlign=top;spacingLeft=4;spacingRight=4;overflow=hidden;rotatable=0;points=[[0,0.5],[1,0.5]];portConstraint=eastwest;whiteSpace=wrap;html=1;" parent="YXK7Z4Z5lZBy9XtIN4qR-3" vertex="1">
          <mxGeometry y="26" width="210" height="24" as="geometry" />
        </mxCell>
        <mxCell id="YXK7Z4Z5lZBy9XtIN4qR-5" value="" style="line;strokeWidth=1;fillColor=none;align=left;verticalAlign=middle;spacingTop=-1;spacingLeft=3;spacingRight=3;rotatable=0;labelPosition=right;points=[];portConstraint=eastwest;strokeColor=inherit;" parent="YXK7Z4Z5lZBy9XtIN4qR-3" vertex="1">
          <mxGeometry y="50" width="210" height="8" as="geometry" />
        </mxCell>
        <mxCell id="YXK7Z4Z5lZBy9XtIN4qR-6" value="+ TextFileOpener(): TextFileOpener&lt;div&gt;# openFile(path: String): boolean&lt;/div&gt;&lt;div&gt;+ convertFileToStringArray(): String[]&lt;/div&gt;" style="text;strokeColor=none;fillColor=none;align=left;verticalAlign=top;spacingLeft=4;spacingRight=4;overflow=hidden;rotatable=0;points=[[0,0.5],[1,0.5]];portConstraint=eastwest;whiteSpace=wrap;html=1;" parent="YXK7Z4Z5lZBy9XtIN4qR-3" vertex="1">
          <mxGeometry y="58" width="210" height="52" as="geometry" />
        </mxCell>
        <mxCell id="z4-LLyhYstn7hPUnOFZi-14" style="edgeStyle=orthogonalEdgeStyle;shape=connector;curved=0;rounded=0;orthogonalLoop=1;jettySize=auto;html=1;shadow=0;strokeColor=default;align=center;verticalAlign=middle;fontFamily=Helvetica;fontSize=11;fontColor=default;labelBackgroundColor=default;endArrow=openThin;endFill=0;endSize=20;flowAnimation=0;" parent="1" source="mX7v8Orim6EYVugqGwq7-1" target="z4-LLyhYstn7hPUnOFZi-10" edge="1">
          <mxGeometry relative="1" as="geometry">
            <Array as="points">
              <mxPoint x="790" y="350" />
            </Array>
          </mxGeometry>
        </mxCell>
        <mxCell id="mX7v8Orim6EYVugqGwq7-1" value="KeywordSearcher" style="swimlane;fontStyle=1;align=center;verticalAlign=top;childLayout=stackLayout;horizontal=1;startSize=26;horizontalStack=0;resizeParent=1;resizeParentMax=0;resizeLast=0;collapsible=1;marginBottom=0;whiteSpace=wrap;html=1;" parent="1" vertex="1">
          <mxGeometry x="430" y="297" width="310" height="120" as="geometry" />
        </mxCell>
        <mxCell id="mX7v8Orim6EYVugqGwq7-2" value="&amp;nbsp;" style="text;strokeColor=none;fillColor=none;align=left;verticalAlign=top;spacingLeft=4;spacingRight=4;overflow=hidden;rotatable=0;points=[[0,0.5],[1,0.5]];portConstraint=eastwest;whiteSpace=wrap;html=1;" parent="mX7v8Orim6EYVugqGwq7-1" vertex="1">
          <mxGeometry y="26" width="310" height="24" as="geometry" />
        </mxCell>
        <mxCell id="mX7v8Orim6EYVugqGwq7-3" value="" style="line;strokeWidth=1;fillColor=none;align=left;verticalAlign=middle;spacingTop=-1;spacingLeft=3;spacingRight=3;rotatable=0;labelPosition=right;points=[];portConstraint=eastwest;strokeColor=inherit;" parent="mX7v8Orim6EYVugqGwq7-1" vertex="1">
          <mxGeometry y="50" width="310" height="8" as="geometry" />
        </mxCell>
        <mxCell id="mX7v8Orim6EYVugqGwq7-4" value="+ Searcher(): Searcher&lt;div&gt;+ &lt;u&gt;searchInArrayList&lt;/u&gt;(arrayList: ArrayList&amp;lt;Pair&amp;gt;, word: String): ArrayList&amp;lt;Pair&amp;gt;&lt;/div&gt;" style="text;strokeColor=none;fillColor=none;align=left;verticalAlign=top;spacingLeft=4;spacingRight=4;overflow=hidden;rotatable=0;points=[[0,0.5],[1,0.5]];portConstraint=eastwest;whiteSpace=wrap;html=1;" parent="mX7v8Orim6EYVugqGwq7-1" vertex="1">
          <mxGeometry y="58" width="310" height="62" as="geometry" />
        </mxCell>
        <mxCell id="z4-LLyhYstn7hPUnOFZi-29" style="edgeStyle=orthogonalEdgeStyle;shape=connector;curved=0;rounded=0;orthogonalLoop=1;jettySize=auto;html=1;shadow=0;strokeColor=default;align=center;verticalAlign=middle;fontFamily=Helvetica;fontSize=11;fontColor=default;labelBackgroundColor=default;endArrow=openThin;endFill=0;endSize=20;flowAnimation=0;" parent="1" source="B9tVBVnGrth3jbB6rGIX-1" target="z4-LLyhYstn7hPUnOFZi-10" edge="1">
          <mxGeometry relative="1" as="geometry">
            <Array as="points">
              <mxPoint x="560" y="520" />
              <mxPoint x="560" y="520" />
            </Array>
          </mxGeometry>
        </mxCell>
        <mxCell id="B9tVBVnGrth3jbB6rGIX-1" value="PairArrayListSorter" style="swimlane;fontStyle=1;align=center;verticalAlign=top;childLayout=stackLayout;horizontal=1;startSize=26;horizontalStack=0;resizeParent=1;resizeParentMax=0;resizeLast=0;collapsible=1;marginBottom=0;whiteSpace=wrap;html=1;" parent="1" vertex="1">
          <mxGeometry x="185" y="466" width="350" height="100" as="geometry" />
        </mxCell>
        <mxCell id="B9tVBVnGrth3jbB6rGIX-2" value="&amp;nbsp;" style="text;strokeColor=none;fillColor=none;align=left;verticalAlign=top;spacingLeft=4;spacingRight=4;overflow=hidden;rotatable=0;points=[[0,0.5],[1,0.5]];portConstraint=eastwest;whiteSpace=wrap;html=1;" parent="B9tVBVnGrth3jbB6rGIX-1" vertex="1">
          <mxGeometry y="26" width="350" height="24" as="geometry" />
        </mxCell>
        <mxCell id="B9tVBVnGrth3jbB6rGIX-3" value="" style="line;strokeWidth=1;fillColor=none;align=left;verticalAlign=middle;spacingTop=-1;spacingLeft=3;spacingRight=3;rotatable=0;labelPosition=right;points=[];portConstraint=eastwest;strokeColor=inherit;" parent="B9tVBVnGrth3jbB6rGIX-1" vertex="1">
          <mxGeometry y="50" width="350" height="8" as="geometry" />
        </mxCell>
        <mxCell id="B9tVBVnGrth3jbB6rGIX-4" value="+&amp;nbsp;&lt;span style=&quot;text-align: center;&quot;&gt;PairArrayListSorter&lt;/span&gt;():&amp;nbsp;&lt;span style=&quot;text-align: center;&quot;&gt;PairArrayListSorter&lt;/span&gt;&lt;div&gt;&lt;i&gt;+ sort(arrayList: ArrayList&amp;lt;Pair&amp;gt;&lt;span style=&quot;background-color: initial;&quot;&gt;):&amp;nbsp;&lt;/span&gt;&lt;span style=&quot;background-color: initial;&quot;&gt;ArrayList&amp;lt;Pair&amp;gt;&lt;/span&gt;&lt;/i&gt;&lt;/div&gt;" style="text;strokeColor=none;fillColor=none;align=left;verticalAlign=top;spacingLeft=4;spacingRight=4;overflow=hidden;rotatable=0;points=[[0,0.5],[1,0.5]];portConstraint=eastwest;whiteSpace=wrap;html=1;" parent="B9tVBVnGrth3jbB6rGIX-1" vertex="1">
          <mxGeometry y="58" width="350" height="42" as="geometry" />
        </mxCell>
        <mxCell id="z4-LLyhYstn7hPUnOFZi-3" style="edgeStyle=orthogonalEdgeStyle;shape=connector;curved=0;rounded=0;orthogonalLoop=1;jettySize=auto;html=1;shadow=0;strokeColor=default;align=center;verticalAlign=middle;fontFamily=Helvetica;fontSize=11;fontColor=default;labelBackgroundColor=default;endArrow=blockThin;endFill=0;endSize=20;flowAnimation=0;" parent="1" source="B9tVBVnGrth3jbB6rGIX-5" target="B9tVBVnGrth3jbB6rGIX-1" edge="1">
          <mxGeometry relative="1" as="geometry">
            <Array as="points">
              <mxPoint x="395" y="590" />
              <mxPoint x="395" y="590" />
            </Array>
          </mxGeometry>
        </mxCell>
        <mxCell id="z4-LLyhYstn7hPUnOFZi-16" style="edgeStyle=orthogonalEdgeStyle;shape=connector;curved=0;rounded=0;orthogonalLoop=1;jettySize=auto;html=1;shadow=0;strokeColor=default;align=center;verticalAlign=middle;fontFamily=Helvetica;fontSize=11;fontColor=default;labelBackgroundColor=default;endArrow=openThin;endFill=0;endSize=20;flowAnimation=0;" parent="1" source="B9tVBVnGrth3jbB6rGIX-5" target="z4-LLyhYstn7hPUnOFZi-10" edge="1">
          <mxGeometry relative="1" as="geometry" />
        </mxCell>
        <mxCell id="B9tVBVnGrth3jbB6rGIX-5" value="AlphabeticalPairArrayListSorter" style="swimlane;fontStyle=1;align=center;verticalAlign=top;childLayout=stackLayout;horizontal=1;startSize=26;horizontalStack=0;resizeParent=1;resizeParentMax=0;resizeLast=0;collapsible=1;marginBottom=0;whiteSpace=wrap;html=1;" parent="1" vertex="1">
          <mxGeometry x="220" y="620" width="370" height="110" as="geometry" />
        </mxCell>
        <mxCell id="B9tVBVnGrth3jbB6rGIX-6" value="&amp;nbsp;" style="text;strokeColor=none;fillColor=none;align=left;verticalAlign=top;spacingLeft=4;spacingRight=4;overflow=hidden;rotatable=0;points=[[0,0.5],[1,0.5]];portConstraint=eastwest;whiteSpace=wrap;html=1;" parent="B9tVBVnGrth3jbB6rGIX-5" vertex="1">
          <mxGeometry y="26" width="370" height="24" as="geometry" />
        </mxCell>
        <mxCell id="B9tVBVnGrth3jbB6rGIX-7" value="" style="line;strokeWidth=1;fillColor=none;align=left;verticalAlign=middle;spacingTop=-1;spacingLeft=3;spacingRight=3;rotatable=0;labelPosition=right;points=[];portConstraint=eastwest;strokeColor=inherit;" parent="B9tVBVnGrth3jbB6rGIX-5" vertex="1">
          <mxGeometry y="50" width="370" height="8" as="geometry" />
        </mxCell>
        <mxCell id="B9tVBVnGrth3jbB6rGIX-8" value="+&amp;nbsp;&lt;span style=&quot;text-align: center;&quot;&gt;AlphabeticalPairArrayListSorter&lt;/span&gt;():&amp;nbsp;&lt;span style=&quot;text-align: center;&quot;&gt;AlphabeticalPairArrayListSorter&lt;/span&gt;&lt;div&gt;+ sort(arrayList: ArrayList&amp;lt;Pair&amp;gt;&lt;span style=&quot;background-color: initial;&quot;&gt;):&amp;nbsp;&lt;/span&gt;&lt;span style=&quot;background-color: initial;&quot;&gt;ArrayList&amp;lt;Pair&amp;gt;&lt;/span&gt;&lt;br&gt;&lt;/div&gt;" style="text;strokeColor=none;fillColor=none;align=left;verticalAlign=top;spacingLeft=4;spacingRight=4;overflow=hidden;rotatable=0;points=[[0,0.5],[1,0.5]];portConstraint=eastwest;whiteSpace=wrap;html=1;" parent="B9tVBVnGrth3jbB6rGIX-5" vertex="1">
          <mxGeometry y="58" width="370" height="52" as="geometry" />
        </mxCell>
        <mxCell id="z4-LLyhYstn7hPUnOFZi-8" style="edgeStyle=orthogonalEdgeStyle;shape=connector;curved=0;rounded=0;orthogonalLoop=1;jettySize=auto;html=1;shadow=0;strokeColor=default;align=center;verticalAlign=middle;fontFamily=Helvetica;fontSize=11;fontColor=default;labelBackgroundColor=default;endArrow=openThin;endFill=0;endSize=20;flowAnimation=0;" parent="1" source="z4-LLyhYstn7hPUnOFZi-4" target="epCVmQHk5e1hiLAlQ9qd-5" edge="1">
          <mxGeometry relative="1" as="geometry">
            <Array as="points">
              <mxPoint y="200" />
              <mxPoint y="200" />
            </Array>
          </mxGeometry>
        </mxCell>
        <mxCell id="z4-LLyhYstn7hPUnOFZi-4" value="PathChecker" style="swimlane;fontStyle=1;align=center;verticalAlign=top;childLayout=stackLayout;horizontal=1;startSize=26;horizontalStack=0;resizeParent=1;resizeParentMax=0;resizeLast=0;collapsible=1;marginBottom=0;whiteSpace=wrap;html=1;" parent="1" vertex="1">
          <mxGeometry x="-220" y="130" width="210" height="110" as="geometry" />
        </mxCell>
        <mxCell id="z4-LLyhYstn7hPUnOFZi-5" value="&amp;nbsp;" style="text;strokeColor=none;fillColor=none;align=left;verticalAlign=top;spacingLeft=4;spacingRight=4;overflow=hidden;rotatable=0;points=[[0,0.5],[1,0.5]];portConstraint=eastwest;whiteSpace=wrap;html=1;" parent="z4-LLyhYstn7hPUnOFZi-4" vertex="1">
          <mxGeometry y="26" width="210" height="24" as="geometry" />
        </mxCell>
        <mxCell id="z4-LLyhYstn7hPUnOFZi-6" value="" style="line;strokeWidth=1;fillColor=none;align=left;verticalAlign=middle;spacingTop=-1;spacingLeft=3;spacingRight=3;rotatable=0;labelPosition=right;points=[];portConstraint=eastwest;strokeColor=inherit;" parent="z4-LLyhYstn7hPUnOFZi-4" vertex="1">
          <mxGeometry y="50" width="210" height="8" as="geometry" />
        </mxCell>
        <mxCell id="z4-LLyhYstn7hPUnOFZi-7" value="+ PathChecker(): PathChecker&lt;div&gt;+ &lt;u&gt;getValidPath&lt;/u&gt;(Input input): String&lt;/div&gt;" style="text;strokeColor=none;fillColor=none;align=left;verticalAlign=top;spacingLeft=4;spacingRight=4;overflow=hidden;rotatable=0;points=[[0,0.5],[1,0.5]];portConstraint=eastwest;whiteSpace=wrap;html=1;" parent="z4-LLyhYstn7hPUnOFZi-4" vertex="1">
          <mxGeometry y="58" width="210" height="52" as="geometry" />
        </mxCell>
        <mxCell id="z4-LLyhYstn7hPUnOFZi-10" value="Pair" style="swimlane;fontStyle=1;align=center;verticalAlign=top;childLayout=stackLayout;horizontal=1;startSize=26;horizontalStack=0;resizeParent=1;resizeParentMax=0;resizeLast=0;collapsible=1;marginBottom=0;whiteSpace=wrap;html=1;" parent="1" vertex="1">
          <mxGeometry x="600" y="456" width="310" height="140" as="geometry" />
        </mxCell>
        <mxCell id="z4-LLyhYstn7hPUnOFZi-11" value="+ string: String&lt;div&gt;+ index: int&lt;/div&gt;" style="text;strokeColor=none;fillColor=none;align=left;verticalAlign=top;spacingLeft=4;spacingRight=4;overflow=hidden;rotatable=0;points=[[0,0.5],[1,0.5]];portConstraint=eastwest;whiteSpace=wrap;html=1;" parent="z4-LLyhYstn7hPUnOFZi-10" vertex="1">
          <mxGeometry y="26" width="310" height="34" as="geometry" />
        </mxCell>
        <mxCell id="z4-LLyhYstn7hPUnOFZi-12" value="" style="line;strokeWidth=1;fillColor=none;align=left;verticalAlign=middle;spacingTop=-1;spacingLeft=3;spacingRight=3;rotatable=0;labelPosition=right;points=[];portConstraint=eastwest;strokeColor=inherit;" parent="z4-LLyhYstn7hPUnOFZi-10" vertex="1">
          <mxGeometry y="60" width="310" height="8" as="geometry" />
        </mxCell>
        <mxCell id="z4-LLyhYstn7hPUnOFZi-13" value="+ Pair(string String, index int): Pair()&lt;div&gt;+ getFirstLetter(): Character&lt;/div&gt;&lt;div&gt;+ getFirstWord(): String&lt;/div&gt;&lt;div&gt;+ equals(otherPair: Pair): boolean&lt;/div&gt;" style="text;strokeColor=none;fillColor=none;align=left;verticalAlign=top;spacingLeft=4;spacingRight=4;overflow=hidden;rotatable=0;points=[[0,0.5],[1,0.5]];portConstraint=eastwest;whiteSpace=wrap;html=1;" parent="z4-LLyhYstn7hPUnOFZi-10" vertex="1">
          <mxGeometry y="68" width="310" height="72" as="geometry" />
        </mxCell>
        <mxCell id="z4-LLyhYstn7hPUnOFZi-21" value="CircularShifter is a separate class to encapsulate the process it uses to perform the shifting on the array. I used an ArrayList, as it is much easier to not worry about array sizes, and simply dynamically add and remove elements." style="shape=note;whiteSpace=wrap;html=1;backgroundOutline=1;darkOpacity=0.05;fontFamily=Helvetica;fontSize=11;labelBackgroundColor=none;fillColor=#fff2cc;strokeColor=#d6b656;" parent="1" vertex="1">
          <mxGeometry x="-105" y="770" width="270" height="100" as="geometry" />
        </mxCell>
        <mxCell id="z4-LLyhYstn7hPUnOFZi-22" value="AlphabeticalPairArrayListSorter (I understand is a mouthful, but it needed to be named this to be as clear as possible to anyone implementing its functionality...) is a subclass of PairArrayListSorter so I can potentially add new sorting methods in other strategies." style="shape=note;whiteSpace=wrap;html=1;backgroundOutline=1;darkOpacity=0.05;fontFamily=Helvetica;fontSize=11;labelBackgroundColor=none;fillColor=#fff2cc;strokeColor=#d6b656;" parent="1" vertex="1">
          <mxGeometry x="280" y="770" width="270" height="100" as="geometry" />
        </mxCell>
        <mxCell id="z4-LLyhYstn7hPUnOFZi-23" value="Pair is a data storage type that I created to hold a string and its corresponding index in the original file its from. It has a getFirstLetter() function to help with sorting." style="shape=note;whiteSpace=wrap;html=1;backgroundOutline=1;darkOpacity=0.05;fontFamily=Helvetica;fontSize=11;labelBackgroundColor=none;fillColor=#fff2cc;strokeColor=#d6b656;" parent="1" vertex="1">
          <mxGeometry x="850" y="600" width="270" height="100" as="geometry" />
        </mxCell>
        <mxCell id="z4-LLyhYstn7hPUnOFZi-24" value="The Input class handles getting information from the user, and initially that will only be via the console. In the future, if a developer wanted to, they could expand this functionality to include things like UI input, voice, etc." style="shape=note;whiteSpace=wrap;html=1;backgroundOutline=1;darkOpacity=0.05;fontFamily=Helvetica;fontSize=11;labelBackgroundColor=none;fillColor=#fff2cc;strokeColor=#d6b656;" parent="1" vertex="1">
          <mxGeometry x="-105" y="-120" width="270" height="100" as="geometry" />
        </mxCell>
        <mxCell id="z4-LLyhYstn7hPUnOFZi-25" value="The Output class and strategy subclasses handle how the processed information will be shown to the user. For now, it is only shown in the console. In the future, I may expand this to include exporting to a CSV, text file, or UI..." style="shape=note;whiteSpace=wrap;html=1;backgroundOutline=1;darkOpacity=0.05;fontFamily=Helvetica;fontSize=11;labelBackgroundColor=none;fillColor=#fff2cc;strokeColor=#d6b656;" parent="1" vertex="1">
          <mxGeometry x="470" y="80" width="270" height="100" as="geometry" />
        </mxCell>
        <mxCell id="z4-LLyhYstn7hPUnOFZi-26" value="FileManager is an abstract strategy to encapsulate what type of file is being opened and its decoding technique." style="shape=note;whiteSpace=wrap;html=1;backgroundOutline=1;darkOpacity=0.05;fontFamily=Helvetica;fontSize=11;labelBackgroundColor=none;fillColor=#fff2cc;strokeColor=#d6b656;" parent="1" vertex="1">
          <mxGeometry x="-520" y="380" width="270" height="100" as="geometry" />
        </mxCell>
        <mxCell id="z4-LLyhYstn7hPUnOFZi-27" value="PathChecker validates the path string supplied by the user." style="shape=note;whiteSpace=wrap;html=1;backgroundOutline=1;darkOpacity=0.05;fontFamily=Helvetica;fontSize=11;labelBackgroundColor=none;fillColor=#fff2cc;strokeColor=#d6b656;" parent="1" vertex="1">
          <mxGeometry x="-410" y="20" width="270" height="100" as="geometry" />
        </mxCell>
      </root>
    </mxGraphModel>
  </diagram>
</mxfile>
